<svg width="216" height="94" viewBox="0 0 216 94" fill="none" xmlns="http://www.w3.org/2000/svg">
<rect x="12.5488" y="9.63287" width="37.6468" height="37.6468" rx="18.8234" transform="rotate(-11.2616 12.5488 9.63287)" fill="#FFC031"/>
<path d="M31.0868 34.1914L27.745 17.4087L34.6777 16.0282C35.9342 15.778 37.0676 15.808 38.0779 16.118C39.0925 16.4214 39.9354 16.9607 40.6066 17.7358C41.2767 18.5055 41.7265 19.4666 41.956 20.6194C42.1867 21.7775 42.1344 22.8415 41.7993 23.8113C41.4686 24.7746 40.8835 25.5869 40.0439 26.2482C39.2043 26.9095 38.1427 27.368 36.8588 27.6236L32.5812 28.4754L31.9448 25.2795L35.4685 24.5778C36.0804 24.456 36.57 24.2477 36.9373 23.9531C37.3101 23.6573 37.5649 23.2971 37.7018 22.8722C37.8376 22.4419 37.8544 21.97 37.7522 21.4565C37.6488 20.9375 37.4531 20.5107 37.165 20.1762C36.8758 19.8362 36.5029 19.6037 36.0464 19.4788C35.5898 19.3539 35.0584 19.3518 34.4519 19.4725L32.4524 19.8707L35.1432 33.3837L31.0868 34.1914Z" fill="white"/>
<rect y="49.7031" width="37.6468" height="37.6468" rx="18.8234" transform="rotate(-6.20649 0 49.7031)" fill="#FFC031"/>
<path d="M16.3007 75.7999L14.4507 58.788L21.4781 58.0237C22.7517 57.8852 23.8781 58.0149 24.8571 58.4127C25.841 58.8044 26.6331 59.4158 27.2334 60.2471C27.8331 61.0728 28.1965 62.0699 28.3236 63.2383C28.4512 64.4123 28.3054 65.4676 27.8862 66.4041C27.4719 67.3344 26.8174 68.092 25.9229 68.6768C25.0283 69.2615 23.9303 69.6247 22.629 69.7662L18.2929 70.2377L17.9406 66.9982L21.5125 66.6097C22.1327 66.5423 22.6387 66.378 23.0306 66.1168C23.428 65.8551 23.7136 65.5187 23.8874 65.1075C24.0606 64.6909 24.1189 64.2223 24.0623 63.7017C24.0051 63.1756 23.8477 62.7333 23.5902 62.3747C23.332 62.0105 22.9811 61.7461 22.5374 61.5814C22.0936 61.4168 21.5644 61.3679 20.9497 61.4347L18.9229 61.6551L20.4125 75.3527L16.3007 75.7999Z" fill="white"/>
<rect x="53.8223" y="33.3921" width="37.6468" height="37.6468" rx="18.8234" transform="rotate(24.9258 53.8223 33.3921)" fill="#FFC031"/>
<path d="M54.2839 64.1584L61.4958 48.6401L67.9062 51.6192C69.068 52.1592 69.9651 52.8525 70.5974 53.6992C71.2371 54.5432 71.599 55.4761 71.6831 56.498C71.7695 57.5148 71.5651 58.5561 71.0697 59.622C70.572 60.6929 69.9016 61.5208 69.0586 62.1057C68.2229 62.6879 67.2711 62.998 66.203 63.036C65.135 63.0741 64.0074 62.8172 62.8203 62.2655L58.8649 60.4274L60.2383 57.4722L63.4965 58.9864C64.0623 59.2494 64.5804 59.3704 65.0508 59.3494C65.5263 59.3308 65.9447 59.1905 66.306 58.9285C66.6697 58.6614 66.9619 58.2904 67.1826 57.8155C67.4056 57.3356 67.4996 56.8756 67.4646 56.4355C67.4319 55.9904 67.2682 55.5826 66.9735 55.2122C66.6788 54.8419 66.2511 54.5264 65.6903 54.2658L63.8415 53.4066L58.0347 65.9015L54.2839 64.1584Z" fill="white"/>
<path d="M88.9844 46.2028C88.0393 46.2028 87.2732 46.969 87.2732 47.9141C87.2732 48.8591 88.0393 49.6253 88.9844 49.6253V46.2028ZM118.715 49.1241C119.383 48.4558 119.383 47.3723 118.715 46.704L107.825 35.8139C107.156 35.1456 106.073 35.1456 105.405 35.8139C104.736 36.4822 104.736 37.5657 105.405 38.2339L115.085 47.9141L105.405 57.5942C104.736 58.2625 104.736 59.3459 105.405 60.0142C106.073 60.6825 107.156 60.6825 107.825 60.0142L118.715 49.1241ZM88.9844 49.6253L117.505 49.6253V46.2028L88.9844 46.2028V49.6253Z" fill="#E0E1E4"/>
<mask id="path-8-inside-1_137_1426" fill="white">
<rect x="134.109" width="82.1386" height="37.6468" rx="1.14081" transform="rotate(4.44022 134.109 0)"/>
</mask>
<rect x="134.109" width="82.1386" height="37.6468" rx="1.14081" transform="rotate(4.44022 134.109 0)" fill="white" stroke="#D4C8FF" stroke-width="4.56325" mask="url(#path-8-inside-1_137_1426)"/>
<path d="M135.671 17.3448L146.032 18.1494L145.928 19.4915L135.566 18.6869L135.671 17.3448ZM140.259 15.138L141.726 15.2519L141.044 24.0326L139.577 23.9186L140.259 15.138ZM144.278 13.6307L145.223 14.8599C144.627 14.9813 143.985 15.0841 143.3 15.1682C142.615 15.2447 141.905 15.3078 141.168 15.3574C140.44 15.4 139.706 15.4307 138.964 15.4494C138.231 15.4687 137.513 15.4778 136.811 15.4767C136.805 15.3542 136.785 15.2192 136.751 15.0716C136.725 14.917 136.691 14.7656 136.649 14.6174C136.615 14.4698 136.575 14.3446 136.529 14.242C137.224 14.2425 137.923 14.2281 138.627 14.1988C139.338 14.1702 140.035 14.1328 140.718 14.0866C141.408 14.041 142.053 13.9805 142.654 13.9052C143.263 13.8303 143.804 13.7389 144.278 13.6307ZM147.72 14.5388L156.637 15.2312L156.532 16.5847L148.98 15.9983L148.312 24.5969L146.947 24.491L147.72 14.5388ZM155.989 15.1809L157.365 15.2878L156.716 23.6476C156.688 24.0115 156.62 24.2923 156.513 24.49C156.406 24.6953 156.23 24.8456 155.986 24.9411C155.742 25.0366 155.441 25.0819 155.083 25.077C154.732 25.0802 154.302 25.0621 153.794 25.0226C153.781 24.892 153.755 24.7412 153.715 24.5702C153.675 24.3993 153.627 24.2278 153.572 24.0557C153.516 23.8911 153.459 23.7455 153.4 23.6189C153.618 23.6512 153.837 23.6796 154.057 23.7043C154.284 23.7219 154.485 23.7375 154.66 23.7511C154.834 23.7646 154.955 23.774 155.024 23.7793C155.13 23.78 155.208 23.7631 155.256 23.7288C155.305 23.6868 155.334 23.6165 155.341 23.518L155.989 15.1809ZM148.131 18.8273L156.331 19.4641L156.227 20.8062L148.026 20.1694L148.131 18.8273ZM151.723 15.5934L153.088 15.6994L152.765 19.8622L151.4 19.7563L151.723 15.5934Z" fill="#D4C8FF"/>
<path d="M191.057 10.3955L190.479 17.8402L189.13 17.7355L189.606 11.603L189.562 11.5996L187.735 12.5768L187.831 11.3408L189.773 10.2958L191.057 10.3955ZM195.11 18.3424C194.511 18.2959 194.009 18.1046 193.604 17.7683C193.201 17.4299 192.907 16.9645 192.721 16.3723C192.538 15.7778 192.478 15.0747 192.541 14.2628C192.606 13.4512 192.775 12.7695 193.047 12.2176C193.322 11.6636 193.684 11.2529 194.134 10.9855C194.586 10.7183 195.11 10.6078 195.707 10.6541C196.303 10.7004 196.804 10.8905 197.209 11.2243C197.615 11.5581 197.909 12.0198 198.093 12.6094C198.279 13.1992 198.34 13.8988 198.277 14.7083C198.214 15.5225 198.045 16.2091 197.77 16.768C197.497 17.3247 197.135 17.7378 196.682 18.0074C196.232 18.2772 195.708 18.3889 195.11 18.3424ZM195.198 17.2046C195.663 17.2408 196.048 17.0403 196.353 16.6031C196.66 16.1637 196.848 15.4969 196.918 14.6027C196.964 14.0114 196.94 13.5098 196.848 13.0979C196.756 12.686 196.605 12.3695 196.395 12.1485C196.186 11.925 195.927 11.8013 195.619 11.7774C195.156 11.7414 194.773 11.9433 194.468 12.3828C194.163 12.82 193.975 13.4819 193.904 14.3687C193.856 14.9622 193.876 15.4661 193.966 15.8802C194.058 16.2945 194.209 16.6134 194.418 16.8369C194.628 17.058 194.888 17.1805 195.198 17.2046ZM201.937 18.8726C201.339 18.8261 200.837 18.6348 200.431 18.2985C200.028 17.9601 199.734 17.4947 199.549 16.9025C199.366 16.308 199.306 15.6049 199.369 14.793C199.434 13.9814 199.603 13.2996 199.875 12.7478C200.149 12.1938 200.512 11.7831 200.962 11.5157C201.414 11.2485 201.938 11.138 202.534 11.1843C203.13 11.2306 203.631 11.4207 204.037 11.7545C204.442 12.0883 204.737 12.55 204.92 13.1396C205.106 13.7294 205.168 14.429 205.105 15.2385C205.042 16.0527 204.872 16.7393 204.597 17.2982C204.325 17.8549 203.963 18.268 203.51 18.5376C203.06 18.8074 202.536 18.9191 201.937 18.8726ZM202.026 17.7348C202.491 17.7709 202.876 17.5704 203.18 17.1333C203.488 16.6939 203.676 16.0271 203.745 15.1329C203.791 14.5416 203.768 14.04 203.676 13.6281C203.583 13.2162 203.432 12.8997 203.223 12.6787C203.013 12.4552 202.755 12.3315 202.447 12.3076C201.984 12.2716 201.6 12.4734 201.296 12.913C200.991 13.3501 200.803 14.0121 200.732 14.8989C200.683 15.4924 200.704 15.9963 200.794 16.4104C200.886 16.8247 201.037 17.1436 201.246 17.3671C201.455 17.5881 201.715 17.7107 202.026 17.7348ZM208.765 19.4028C208.166 19.3563 207.664 19.1649 207.259 18.8287C206.856 18.4902 206.562 18.0249 206.376 17.4327C206.193 16.8382 206.133 16.135 206.196 15.3232C206.262 14.5115 206.43 13.8298 206.703 13.278C206.977 12.724 207.339 12.3132 207.789 12.0459C208.242 11.7787 208.766 11.6682 209.362 11.7145C209.958 11.7608 210.459 11.9508 210.865 12.2847C211.27 12.6185 211.565 13.0802 211.748 13.6698C211.934 14.2596 211.995 14.9592 211.932 15.7686C211.869 16.5829 211.7 17.2695 211.425 17.8284C211.153 18.385 210.79 18.7982 210.338 19.0678C209.888 19.3376 209.363 19.4493 208.765 19.4028ZM208.853 18.265C209.319 18.3011 209.703 18.1006 210.008 17.6635C210.315 17.2241 210.504 16.5573 210.573 15.6631C210.619 15.0718 210.596 14.5702 210.503 14.1583C210.411 13.7464 210.26 13.4299 210.05 13.2088C209.841 12.9853 209.582 12.8617 209.275 12.8378C208.812 12.8018 208.428 13.0036 208.123 13.4432C207.819 13.8803 207.631 14.5423 207.559 15.4291C207.511 16.0226 207.532 16.5264 207.621 16.9406C207.713 17.3549 207.864 17.6738 208.074 17.8973C208.283 18.1183 208.543 18.2409 208.853 18.265Z" fill="#D4C8FF"/>
<circle cx="174.166" cy="21.9906" r="11.9785" transform="rotate(4.44022 174.166 21.9906)" stroke="#D4C8FF" stroke-width="2.28163"/>
<circle cx="143.743" cy="60.4632" r="18.253" fill="white" stroke="#D4C8FF" stroke-width="2.28163"/>
<circle cx="188.234" cy="70.7305" r="21.6755" fill="white" stroke="#D4C8FF" stroke-width="2.28163"/>
<path d="M173.305 72.7416C172.453 72.3992 171.755 71.933 171.21 71.343C170.667 70.7487 170.31 70.0908 170.14 69.3692C169.974 68.6494 170.024 67.9222 170.289 67.1877L172.59 68.1122C172.417 68.6661 172.473 69.1982 172.758 69.7085C173.044 70.2146 173.483 70.5866 174.076 70.8245C174.54 71.0112 174.996 71.0707 175.444 71.0032C175.891 70.9357 176.296 70.7544 176.657 70.4591C177.018 70.1638 177.294 69.7725 177.485 69.2851C177.688 68.7927 177.76 68.3119 177.701 67.8429C177.642 67.3739 177.471 66.9562 177.187 66.59C176.906 66.2196 176.524 65.9376 176.043 65.7441C175.653 65.5824 175.238 65.4998 174.799 65.4966C174.36 65.4933 173.981 65.5686 173.662 65.7224L171.662 64.5106L175.058 58.0372L182.649 61.0881L181.853 63.0691L176.224 60.8066L174.452 64.1251L174.529 64.1559C174.886 63.968 175.324 63.8694 175.843 63.86C176.363 63.8463 176.887 63.9457 177.415 64.158C178.208 64.4764 178.839 64.948 179.311 65.5729C179.784 66.1935 180.068 66.9016 180.164 67.6972C180.26 68.4928 180.139 69.3103 179.802 70.1495C179.455 71.0144 178.945 71.705 178.272 72.2214C177.605 72.7353 176.84 73.044 175.977 73.1475C175.12 73.2484 174.23 73.1132 173.305 72.7416ZM184.952 77.5037C183.9 77.0809 183.104 76.4517 182.563 75.6161C182.029 74.778 181.763 73.7728 181.764 72.6005C181.771 71.4256 182.061 70.1246 182.635 68.6974C183.212 67.272 183.903 66.1391 184.706 65.2989C185.514 64.4562 186.4 63.9213 187.362 63.6943C188.328 63.4691 189.335 63.5671 190.383 63.9882C191.431 64.4094 192.226 65.0356 192.768 65.8669C193.31 66.6982 193.579 67.697 193.575 68.8634C193.576 70.0314 193.29 71.3269 192.719 72.7498C192.143 74.1812 191.45 75.3226 190.637 76.1739C189.831 77.0226 188.944 77.5617 187.976 77.7912C187.012 78.0224 186.004 77.9266 184.952 77.5037ZM185.756 75.5036C186.574 75.8323 187.381 75.6891 188.177 75.0739C188.98 74.4562 189.697 73.3614 190.329 71.7894C190.746 70.7499 190.989 69.8329 191.056 69.0384C191.123 68.2438 191.03 67.5881 190.777 67.071C190.527 66.5496 190.131 66.1803 189.59 65.9628C188.776 65.6358 187.97 65.782 187.172 66.4014C186.376 67.0166 185.662 68.1029 185.031 69.6605C184.607 70.7025 184.359 71.622 184.286 72.4191C184.218 73.2179 184.309 73.8779 184.559 74.3993C184.812 74.9163 185.21 75.2844 185.756 75.5036ZM196.955 82.3272C195.902 81.9043 195.106 81.2751 194.566 80.4395C194.032 79.6014 193.765 78.5962 193.767 77.4239C193.774 76.249 194.064 74.948 194.637 73.5209C195.215 72.0954 195.905 70.9626 196.708 70.1223C197.517 69.2796 198.402 68.7447 199.364 68.5178C200.331 68.2925 201.338 68.3905 202.386 68.8116C203.434 69.2328 204.229 69.859 204.771 70.6903C205.312 71.5216 205.582 72.5204 205.578 73.6868C205.579 74.8548 205.293 76.1503 204.721 77.5732C204.146 79.0047 203.452 80.146 202.64 80.9973C201.834 81.846 200.947 82.3852 199.979 82.6147C199.015 82.8459 198.007 82.75 196.955 82.3272ZM197.758 80.327C198.576 80.6557 199.384 80.5125 200.18 79.8973C200.982 79.2796 201.7 78.1848 202.331 76.6128C202.749 75.5733 202.991 74.6563 203.058 73.8618C203.125 73.0673 203.032 72.4115 202.78 71.8944C202.529 71.3731 202.133 71.0037 201.592 70.7863C200.779 70.4593 199.973 70.6055 199.175 71.2249C198.378 71.84 197.665 72.9263 197.034 74.4839C196.61 75.5259 196.362 76.4455 196.289 77.2425C196.22 78.0413 196.311 78.7013 196.562 79.2227C196.814 79.7397 197.213 80.1079 197.758 80.327Z" fill="#D4C8FF"/>
<path d="M132.975 56.8028L135.724 68.9407L133.525 69.4386L131.261 59.4402L131.19 59.4563L128.762 61.9127L128.305 59.8977L130.883 57.2765L132.975 56.8028ZM143.345 67.458C142.369 67.679 141.475 67.6217 140.664 67.2862C139.856 66.9458 139.158 66.3499 138.571 65.4985C137.986 64.6422 137.544 63.5523 137.245 62.2286C136.949 60.9041 136.882 59.7355 137.043 58.7229C137.207 57.7054 137.581 56.873 138.166 56.2256C138.754 55.5773 139.534 55.1431 140.506 54.923C141.478 54.7029 142.369 54.7586 143.18 55.0902C143.99 55.4218 144.686 56.0118 145.269 56.8601C145.855 57.7076 146.298 58.7912 146.597 60.1109C146.898 61.4385 146.967 62.6149 146.804 63.6403C146.645 64.6608 146.271 65.4972 145.684 66.1495C145.1 66.8008 144.321 67.237 143.345 67.458ZM142.925 65.6029C143.683 65.4312 144.197 64.9222 144.467 64.0762C144.739 63.2252 144.711 62.0708 144.38 60.6128C144.162 59.6487 143.878 58.8615 143.528 58.2513C143.178 57.641 142.782 57.2116 142.339 56.9629C141.895 56.7102 141.423 56.6407 140.921 56.7543C140.166 56.9252 139.655 57.4357 139.386 58.2857C139.117 59.1318 139.144 60.2784 139.467 61.7254C139.682 62.6943 139.963 63.4863 140.31 64.1014C140.661 64.7156 141.059 65.1491 141.502 65.4017C141.945 65.6504 142.419 65.7175 142.925 65.6029ZM154.477 64.9373C153.501 65.1583 152.607 65.101 151.796 64.7655C150.988 64.4251 150.29 63.8292 149.703 62.9778C149.118 62.1215 148.676 61.0315 148.376 59.7079C148.081 58.3834 148.013 57.2148 148.175 56.2022C148.339 55.1847 148.713 54.3523 149.298 53.7049C149.886 53.0566 150.666 52.6224 151.638 52.4023C152.61 52.1822 153.501 52.2379 154.312 52.5695C155.122 52.9011 155.818 53.491 156.401 54.3394C156.987 55.1869 157.43 56.2705 157.729 57.5901C158.029 58.9177 158.099 60.0942 157.936 61.1196C157.777 62.1401 157.403 62.9765 156.816 63.6287C156.232 64.2801 155.453 64.7163 154.477 64.9373ZM154.057 63.0822C154.815 62.9104 155.329 62.4015 155.599 61.5554C155.871 60.7045 155.842 59.55 155.512 58.0921C155.294 57.128 155.01 56.3408 154.66 55.7306C154.31 55.1203 153.913 54.6908 153.471 54.4421C153.027 54.1895 152.555 54.12 152.053 54.2336C151.298 54.4045 150.787 54.915 150.518 55.765C150.248 56.6111 150.275 57.7576 150.599 59.2046C150.814 60.1736 151.095 60.9656 151.442 61.5807C151.793 62.1949 152.19 62.6283 152.634 62.881C153.077 63.1297 153.551 63.1967 154.057 63.0822Z" fill="#D4C8FF"/>
</svg>
