<svg width="174" height="116" viewBox="0 0 174 116" fill="none" xmlns="http://www.w3.org/2000/svg">
<rect width="174" height="34" rx="10" fill="white"/>
<rect y="41" width="174" height="34" rx="10" fill="white"/>
<rect y="82" width="174" height="34" rx="10" fill="white"/>
<path d="M82.8308 20.4233V12.7102H84.9775V20.4233H82.8308ZM80.0449 17.6428V15.4908H87.758V17.6428H80.0449ZM98.1251 11.0909V22H95.4937V13.5518H95.4298L92.9901 15.0433V12.7635L95.6801 11.0909H98.1251ZM105.048 22.2663C104.097 22.2663 103.276 22.0408 102.588 21.5898C101.899 21.1353 101.368 20.4837 100.995 19.6349C100.622 18.7827 100.437 17.7582 100.441 16.5614C100.444 15.3647 100.631 14.3491 101 13.5146C101.373 12.6765 101.902 12.0391 102.588 11.6023C103.276 11.1619 104.097 10.9418 105.048 10.9418C106 10.9418 106.82 11.1619 107.509 11.6023C108.202 12.0391 108.735 12.6765 109.107 13.5146C109.48 14.3526 109.665 15.3683 109.661 16.5614C109.661 17.7617 109.475 18.788 109.102 19.6403C108.729 20.4925 108.198 21.1442 107.509 21.5952C106.824 22.0426 106.004 22.2663 105.048 22.2663ZM105.048 20.109C105.617 20.109 106.077 19.8196 106.428 19.2408C106.78 18.6584 106.954 17.7653 106.95 16.5614C106.95 15.7731 106.87 15.1232 106.71 14.6119C106.551 14.0969 106.329 13.7134 106.045 13.4613C105.76 13.2092 105.428 13.0831 105.048 13.0831C104.484 13.0831 104.028 13.369 103.68 13.9407C103.331 14.5089 103.156 15.3825 103.152 16.5614C103.149 17.3604 103.225 18.0227 103.381 18.5483C103.541 19.0739 103.765 19.4663 104.052 19.7255C104.34 19.9812 104.672 20.109 105.048 20.109ZM113.382 20.5085L113.334 21.0998C113.292 21.5898 113.205 22.0675 113.073 22.5327C112.945 23.0014 112.809 23.4222 112.663 23.7951C112.517 24.168 112.402 24.4574 112.317 24.6634H110.676C110.733 24.4574 110.809 24.168 110.905 23.7951C111.005 23.4222 111.097 23.0014 111.182 22.5327C111.267 22.0639 111.315 21.5881 111.326 21.1051L111.337 20.5085H113.382ZM119.404 22.2663C118.452 22.2663 117.632 22.0408 116.943 21.5898C116.254 21.1353 115.723 20.4837 115.35 19.6349C114.977 18.7827 114.793 17.7582 114.796 16.5614C114.8 15.3647 114.986 14.3491 115.356 13.5146C115.729 12.6765 116.258 12.0391 116.943 11.6023C117.632 11.1619 118.452 10.9418 119.404 10.9418C120.356 10.9418 121.176 11.1619 121.865 11.6023C122.557 12.0391 123.09 12.6765 123.463 13.5146C123.836 14.3526 124.02 15.3683 124.017 16.5614C124.017 17.7617 123.83 18.788 123.458 19.6403C123.085 20.4925 122.554 21.1442 121.865 21.5952C121.18 22.0426 120.359 22.2663 119.404 22.2663ZM119.404 20.109C119.972 20.109 120.432 19.8196 120.784 19.2408C121.135 18.6584 121.309 17.7653 121.306 16.5614C121.306 15.7731 121.226 15.1232 121.066 14.6119C120.906 14.0969 120.684 13.7134 120.4 13.4613C120.116 13.2092 119.784 13.0831 119.404 13.0831C118.839 13.0831 118.383 13.369 118.035 13.9407C117.687 14.5089 117.511 15.3825 117.508 16.5614C117.504 17.3604 117.58 18.0227 117.737 18.5483C117.896 19.0739 118.12 19.4663 118.408 19.7255C118.695 19.9812 119.028 20.109 119.404 20.109ZM130.039 22.2663C129.087 22.2663 128.267 22.0408 127.578 21.5898C126.889 21.1353 126.358 20.4837 125.985 19.6349C125.612 18.7827 125.428 17.7582 125.431 16.5614C125.435 15.3647 125.621 14.3491 125.99 13.5146C126.363 12.6765 126.892 12.0391 127.578 11.6023C128.267 11.1619 129.087 10.9418 130.039 10.9418C130.99 10.9418 131.811 11.1619 132.5 11.6023C133.192 12.0391 133.725 12.6765 134.098 13.5146C134.471 14.3526 134.655 15.3683 134.652 16.5614C134.652 17.7617 134.465 18.788 134.092 19.6403C133.719 20.4925 133.189 21.1442 132.5 21.5952C131.814 22.0426 130.994 22.2663 130.039 22.2663ZM130.039 20.109C130.607 20.109 131.067 19.8196 131.418 19.2408C131.77 18.6584 131.944 17.7653 131.94 16.5614C131.94 15.7731 131.86 15.1232 131.701 14.6119C131.541 14.0969 131.319 13.7134 131.035 13.4613C130.751 13.2092 130.419 13.0831 130.039 13.0831C129.474 13.0831 129.018 13.369 128.67 13.9407C128.322 14.5089 128.146 15.3825 128.142 16.5614C128.139 17.3604 128.215 18.0227 128.371 18.5483C128.531 19.0739 128.755 19.4663 129.043 19.7255C129.33 19.9812 129.662 20.109 130.039 20.109ZM140.673 22.2663C139.722 22.2663 138.901 22.0408 138.213 21.5898C137.524 21.1353 136.993 20.4837 136.62 19.6349C136.247 18.7827 136.062 17.7582 136.066 16.5614C136.069 15.3647 136.256 14.3491 136.625 13.5146C136.998 12.6765 137.527 12.0391 138.213 11.6023C138.901 11.1619 139.722 10.9418 140.673 10.9418C141.625 10.9418 142.445 11.1619 143.134 11.6023C143.827 12.0391 144.36 12.6765 144.732 13.5146C145.105 14.3526 145.29 15.3683 145.286 16.5614C145.286 17.7617 145.1 18.788 144.727 19.6403C144.354 20.4925 143.823 21.1442 143.134 21.5952C142.449 22.0426 141.629 22.2663 140.673 22.2663ZM140.673 20.109C141.242 20.109 141.702 19.8196 142.053 19.2408C142.405 18.6584 142.579 17.7653 142.575 16.5614C142.575 15.7731 142.495 15.1232 142.335 14.6119C142.176 14.0969 141.954 13.7134 141.67 13.4613C141.385 13.2092 141.053 13.0831 140.673 13.0831C140.109 13.0831 139.653 13.369 139.305 13.9407C138.956 14.5089 138.781 15.3825 138.777 16.5614C138.774 17.3604 138.85 18.0227 139.006 18.5483C139.166 19.0739 139.39 19.4663 139.677 19.7255C139.965 19.9812 140.297 20.109 140.673 20.109ZM150.04 22V11.0909H154.547C155.364 11.0909 156.069 11.2507 156.662 11.5703C157.258 11.8864 157.718 12.3285 158.041 12.8967C158.364 13.4613 158.526 14.1183 158.526 14.8675C158.526 15.6204 158.361 16.2791 158.031 16.8438C157.704 17.4048 157.237 17.8398 156.63 18.1488C156.022 18.4577 155.301 18.6122 154.467 18.6122H151.686V16.5348H153.977C154.375 16.5348 154.707 16.4656 154.973 16.3271C155.243 16.1886 155.447 15.995 155.586 15.7464C155.724 15.4943 155.793 15.2013 155.793 14.8675C155.793 14.5302 155.724 14.239 155.586 13.994C155.447 13.7454 155.243 13.5536 154.973 13.4187C154.703 13.2837 154.371 13.2163 153.977 13.2163H152.677V22H150.04Z" fill="#8771EF"/>
<path d="M90.8874 61.4233V53.7102H93.0341V61.4233H90.8874ZM88.1016 58.6428V56.4908H95.8146V58.6428H88.1016ZM101.137 63V61.1037L105.116 57.62C105.415 57.3501 105.669 57.1033 105.878 56.8796C106.088 56.6523 106.247 56.4251 106.358 56.1978C106.468 55.967 106.523 55.7166 106.523 55.4467C106.523 55.1449 106.457 54.8874 106.326 54.6744C106.194 54.4577 106.013 54.2908 105.782 54.1737C105.551 54.0565 105.287 53.9979 104.989 53.9979C104.687 53.9979 104.422 54.06 104.195 54.1843C103.968 54.305 103.79 54.4808 103.662 54.7116C103.538 54.9425 103.476 55.223 103.476 55.5533H100.978C100.978 54.8111 101.144 54.1701 101.478 53.6303C101.812 53.0906 102.281 52.6751 102.884 52.3839C103.492 52.0891 104.197 51.9418 104.999 51.9418C105.827 51.9418 106.546 52.0803 107.157 52.3572C107.767 52.6342 108.24 53.0213 108.573 53.5185C108.911 54.0121 109.079 54.5856 109.079 55.239C109.079 55.6545 108.996 56.0664 108.829 56.4748C108.662 56.8832 108.362 57.3342 107.929 57.8278C107.499 58.3214 106.888 58.9126 106.097 59.6016L104.791 60.8054V60.8746H109.213V63H101.137ZM113.382 61.5085L113.334 62.0998C113.292 62.5898 113.205 63.0675 113.073 63.5327C112.945 64.0014 112.809 64.4222 112.663 64.7951C112.517 65.168 112.402 65.4574 112.317 65.6634H110.676C110.733 65.4574 110.809 65.168 110.905 64.7951C111.005 64.4222 111.097 64.0014 111.182 63.5327C111.267 63.0639 111.315 62.5881 111.326 62.1051L111.337 61.5085H113.382ZM119.404 63.2663C118.452 63.2663 117.632 63.0408 116.943 62.5898C116.254 62.1353 115.723 61.4837 115.35 60.6349C114.977 59.7827 114.793 58.7582 114.796 57.5614C114.8 56.3647 114.986 55.3491 115.356 54.5146C115.729 53.6765 116.258 53.0391 116.943 52.6023C117.632 52.1619 118.452 51.9418 119.404 51.9418C120.356 51.9418 121.176 52.1619 121.865 52.6023C122.557 53.0391 123.09 53.6765 123.463 54.5146C123.836 55.3526 124.02 56.3683 124.017 57.5614C124.017 58.7617 123.83 59.788 123.458 60.6403C123.085 61.4925 122.554 62.1442 121.865 62.5952C121.18 63.0426 120.359 63.2663 119.404 63.2663ZM119.404 61.109C119.972 61.109 120.432 60.8196 120.784 60.2408C121.135 59.6584 121.309 58.7653 121.306 57.5614C121.306 56.7731 121.226 56.1232 121.066 55.6119C120.906 55.0969 120.684 54.7134 120.4 54.4613C120.116 54.2092 119.784 54.0831 119.404 54.0831C118.839 54.0831 118.383 54.369 118.035 54.9407C117.687 55.5089 117.511 56.3825 117.508 57.5614C117.504 58.3604 117.58 59.0227 117.737 59.5483C117.896 60.0739 118.12 60.4663 118.408 60.7255C118.695 60.9812 119.028 61.109 119.404 61.109ZM130.039 63.2663C129.087 63.2663 128.267 63.0408 127.578 62.5898C126.889 62.1353 126.358 61.4837 125.985 60.6349C125.612 59.7827 125.428 58.7582 125.431 57.5614C125.435 56.3647 125.621 55.3491 125.99 54.5146C126.363 53.6765 126.892 53.0391 127.578 52.6023C128.267 52.1619 129.087 51.9418 130.039 51.9418C130.99 51.9418 131.811 52.1619 132.5 52.6023C133.192 53.0391 133.725 53.6765 134.098 54.5146C134.471 55.3526 134.655 56.3683 134.652 57.5614C134.652 58.7617 134.465 59.788 134.092 60.6403C133.719 61.4925 133.189 62.1442 132.5 62.5952C131.814 63.0426 130.994 63.2663 130.039 63.2663ZM130.039 61.109C130.607 61.109 131.067 60.8196 131.418 60.2408C131.77 59.6584 131.944 58.7653 131.94 57.5614C131.94 56.7731 131.86 56.1232 131.701 55.6119C131.541 55.0969 131.319 54.7134 131.035 54.4613C130.751 54.2092 130.419 54.0831 130.039 54.0831C129.474 54.0831 129.018 54.369 128.67 54.9407C128.322 55.5089 128.146 56.3825 128.142 57.5614C128.139 58.3604 128.215 59.0227 128.371 59.5483C128.531 60.0739 128.755 60.4663 129.043 60.7255C129.33 60.9812 129.662 61.109 130.039 61.109ZM140.673 63.2663C139.722 63.2663 138.901 63.0408 138.213 62.5898C137.524 62.1353 136.993 61.4837 136.62 60.6349C136.247 59.7827 136.062 58.7582 136.066 57.5614C136.069 56.3647 136.256 55.3491 136.625 54.5146C136.998 53.6765 137.527 53.0391 138.213 52.6023C138.901 52.1619 139.722 51.9418 140.673 51.9418C141.625 51.9418 142.445 52.1619 143.134 52.6023C143.827 53.0391 144.36 53.6765 144.732 54.5146C145.105 55.3526 145.29 56.3683 145.286 57.5614C145.286 58.7617 145.1 59.788 144.727 60.6403C144.354 61.4925 143.823 62.1442 143.134 62.5952C142.449 63.0426 141.629 63.2663 140.673 63.2663ZM140.673 61.109C141.242 61.109 141.702 60.8196 142.053 60.2408C142.405 59.6584 142.579 58.7653 142.575 57.5614C142.575 56.7731 142.495 56.1232 142.335 55.6119C142.176 55.0969 141.954 54.7134 141.67 54.4613C141.385 54.2092 141.053 54.0831 140.673 54.0831C140.109 54.0831 139.653 54.369 139.305 54.9407C138.956 55.5089 138.781 56.3825 138.777 57.5614C138.774 58.3604 138.85 59.0227 139.006 59.5483C139.166 60.0739 139.39 60.4663 139.677 60.7255C139.965 60.9812 140.297 61.109 140.673 61.109ZM150.04 63V52.0909H154.547C155.364 52.0909 156.069 52.2507 156.662 52.5703C157.258 52.8864 157.718 53.3285 158.041 53.8967C158.364 54.4613 158.526 55.1183 158.526 55.8675C158.526 56.6204 158.361 57.2791 158.031 57.8438C157.704 58.4048 157.237 58.8398 156.63 59.1488C156.022 59.4577 155.301 59.6122 154.467 59.6122H151.686V57.5348H153.977C154.375 57.5348 154.707 57.4656 154.973 57.3271C155.243 57.1886 155.447 56.995 155.586 56.7464C155.724 56.4943 155.793 56.2013 155.793 55.8675C155.793 55.5302 155.724 55.239 155.586 54.994C155.447 54.7454 155.243 54.5536 154.973 54.4187C154.703 54.2837 154.371 54.2163 153.977 54.2163H152.677V63H150.04Z" fill="#8771EF"/>
<path d="M90.6238 102.423V94.7102H92.7704V102.423H90.6238ZM87.8379 99.6428V97.4908H95.551V99.6428H87.8379ZM105.135 104.149C104.286 104.149 103.528 104.014 102.861 103.744C102.196 103.471 101.674 103.102 101.294 102.636C100.918 102.168 100.73 101.638 100.73 101.049C100.73 100.598 100.838 100.184 101.055 99.8079C101.271 99.4315 101.564 99.119 101.934 98.8704C102.307 98.6183 102.722 98.4567 103.18 98.3857V98.3004C102.58 98.1903 102.088 97.9116 101.705 97.4641C101.325 97.0167 101.135 96.4929 101.135 95.8928C101.135 95.3246 101.307 94.8185 101.651 94.3746C101.999 93.9308 102.473 93.581 103.074 93.3253C103.677 93.0696 104.364 92.9418 105.135 92.9418C105.906 92.9418 106.591 93.0696 107.191 93.3253C107.795 93.581 108.269 93.9308 108.613 94.3746C108.961 94.8185 109.135 95.3246 109.135 95.8928C109.135 96.4964 108.942 97.022 108.555 97.4695C108.171 97.9134 107.683 98.1903 107.09 98.3004V98.3857C107.544 98.4567 107.956 98.6183 108.326 98.8704C108.699 99.119 108.993 99.4315 109.21 99.8079C109.43 100.184 109.54 100.598 109.54 101.049C109.54 101.638 109.35 102.168 108.97 102.636C108.59 103.102 108.068 103.471 107.404 103.744C106.744 104.014 105.987 104.149 105.135 104.149ZM105.135 102.279C105.458 102.279 105.742 102.219 105.987 102.098C106.232 101.974 106.424 101.802 106.563 101.582C106.705 101.362 106.776 101.113 106.776 100.836C106.776 100.552 106.705 100.3 106.563 100.08C106.421 99.8594 106.225 99.6871 105.977 99.5629C105.732 99.435 105.451 99.3711 105.135 99.3711C104.823 99.3711 104.542 99.435 104.293 99.5629C104.045 99.6871 103.85 99.8594 103.707 100.08C103.565 100.3 103.494 100.552 103.494 100.836C103.494 101.113 103.564 101.362 103.702 101.582C103.844 101.798 104.038 101.969 104.283 102.093C104.531 102.217 104.815 102.279 105.135 102.279ZM105.135 97.5121C105.412 97.5121 105.657 97.4553 105.87 97.3416C106.087 97.228 106.255 97.07 106.376 96.8675C106.5 96.6651 106.563 96.4361 106.563 96.1804C106.563 95.9247 106.5 95.6992 106.376 95.5039C106.255 95.3086 106.089 95.1559 105.875 95.0458C105.662 94.9322 105.416 94.8754 105.135 94.8754C104.858 94.8754 104.611 94.9322 104.395 95.0458C104.178 95.1559 104.009 95.3086 103.889 95.5039C103.768 95.6992 103.707 95.9247 103.707 96.1804C103.707 96.4361 103.768 96.6651 103.889 96.8675C104.013 97.0664 104.183 97.2244 104.4 97.3416C104.617 97.4553 104.862 97.5121 105.135 97.5121ZM113.382 102.509L113.334 103.1C113.292 103.59 113.205 104.067 113.073 104.533C112.945 105.001 112.809 105.422 112.663 105.795C112.517 106.168 112.402 106.457 112.317 106.663H110.676C110.733 106.457 110.809 106.168 110.905 105.795C111.005 105.422 111.097 105.001 111.182 104.533C111.267 104.064 111.315 103.588 111.326 103.105L111.337 102.509H113.382ZM119.404 104.266C118.452 104.266 117.632 104.041 116.943 103.59C116.254 103.135 115.723 102.484 115.35 101.635C114.977 100.783 114.793 99.7582 114.796 98.5614C114.8 97.3647 114.986 96.3491 115.356 95.5146C115.729 94.6765 116.258 94.0391 116.943 93.6023C117.632 93.1619 118.452 92.9418 119.404 92.9418C120.356 92.9418 121.176 93.1619 121.865 93.6023C122.557 94.0391 123.09 94.6765 123.463 95.5146C123.836 96.3526 124.02 97.3683 124.017 98.5614C124.017 99.7617 123.83 100.788 123.458 101.64C123.085 102.493 122.554 103.144 121.865 103.595C121.18 104.043 120.359 104.266 119.404 104.266ZM119.404 102.109C119.972 102.109 120.432 101.82 120.784 101.241C121.135 100.658 121.309 99.7653 121.306 98.5614C121.306 97.7731 121.226 97.1232 121.066 96.6119C120.906 96.0969 120.684 95.7134 120.4 95.4613C120.116 95.2092 119.784 95.0831 119.404 95.0831C118.839 95.0831 118.383 95.369 118.035 95.9407C117.687 96.5089 117.511 97.3825 117.508 98.5614C117.504 99.3604 117.58 100.023 117.737 100.548C117.896 101.074 118.12 101.466 118.408 101.725C118.695 101.981 119.028 102.109 119.404 102.109ZM130.039 104.266C129.087 104.266 128.267 104.041 127.578 103.59C126.889 103.135 126.358 102.484 125.985 101.635C125.612 100.783 125.428 99.7582 125.431 98.5614C125.435 97.3647 125.621 96.3491 125.99 95.5146C126.363 94.6765 126.892 94.0391 127.578 93.6023C128.267 93.1619 129.087 92.9418 130.039 92.9418C130.99 92.9418 131.811 93.1619 132.5 93.6023C133.192 94.0391 133.725 94.6765 134.098 95.5146C134.471 96.3526 134.655 97.3683 134.652 98.5614C134.652 99.7617 134.465 100.788 134.092 101.64C133.719 102.493 133.189 103.144 132.5 103.595C131.814 104.043 130.994 104.266 130.039 104.266ZM130.039 102.109C130.607 102.109 131.067 101.82 131.418 101.241C131.77 100.658 131.944 99.7653 131.94 98.5614C131.94 97.7731 131.86 97.1232 131.701 96.6119C131.541 96.0969 131.319 95.7134 131.035 95.4613C130.751 95.2092 130.419 95.0831 130.039 95.0831C129.474 95.0831 129.018 95.369 128.67 95.9407C128.322 96.5089 128.146 97.3825 128.142 98.5614C128.139 99.3604 128.215 100.023 128.371 100.548C128.531 101.074 128.755 101.466 129.043 101.725C129.33 101.981 129.662 102.109 130.039 102.109ZM140.673 104.266C139.722 104.266 138.901 104.041 138.213 103.59C137.524 103.135 136.993 102.484 136.62 101.635C136.247 100.783 136.062 99.7582 136.066 98.5614C136.069 97.3647 136.256 96.3491 136.625 95.5146C136.998 94.6765 137.527 94.0391 138.213 93.6023C138.901 93.1619 139.722 92.9418 140.673 92.9418C141.625 92.9418 142.445 93.1619 143.134 93.6023C143.827 94.0391 144.36 94.6765 144.732 95.5146C145.105 96.3526 145.29 97.3683 145.286 98.5614C145.286 99.7617 145.1 100.788 144.727 101.64C144.354 102.493 143.823 103.144 143.134 103.595C142.449 104.043 141.629 104.266 140.673 104.266ZM140.673 102.109C141.242 102.109 141.702 101.82 142.053 101.241C142.405 100.658 142.579 99.7653 142.575 98.5614C142.575 97.7731 142.495 97.1232 142.335 96.6119C142.176 96.0969 141.954 95.7134 141.67 95.4613C141.385 95.2092 141.053 95.0831 140.673 95.0831C140.109 95.0831 139.653 95.369 139.305 95.9407C138.956 96.5089 138.781 97.3825 138.777 98.5614C138.774 99.3604 138.85 100.023 139.006 100.548C139.166 101.074 139.39 101.466 139.677 101.725C139.965 101.981 140.297 102.109 140.673 102.109ZM150.04 104V93.0909H154.547C155.364 93.0909 156.069 93.2507 156.662 93.5703C157.258 93.8864 157.718 94.3285 158.041 94.8967C158.364 95.4613 158.526 96.1183 158.526 96.8675C158.526 97.6204 158.361 98.2791 158.031 98.8438C157.704 99.4048 157.237 99.8398 156.63 100.149C156.022 100.458 155.301 100.612 154.467 100.612H151.686V98.5348H153.977C154.375 98.5348 154.707 98.4656 154.973 98.3271C155.243 98.1886 155.447 97.995 155.586 97.7464C155.724 97.4943 155.793 97.2013 155.793 96.8675C155.793 96.5302 155.724 96.239 155.586 95.994C155.447 95.7454 155.243 95.5536 154.973 95.4187C154.703 95.2837 154.371 95.2163 153.977 95.2163H152.677V104H150.04Z" fill="#8771EF"/>
<rect x="9" y="8" width="18" height="18" rx="9" fill="#FFC031"/>
<path d="M15.5748 21.25V13.0682H18.9546C19.5672 13.0682 20.0958 13.188 20.5406 13.4277C20.9881 13.6648 21.333 13.9964 21.5753 14.4225C21.8177 14.846 21.9389 15.3387 21.9389 15.9007C21.9389 16.4653 21.815 16.9593 21.5673 17.3828C21.3223 17.8036 20.9721 18.1299 20.5166 18.3616C20.0612 18.5933 19.5206 18.7092 18.8947 18.7092H16.8093V17.1511H18.5271C18.8254 17.1511 19.0744 17.0992 19.2742 16.9953C19.4766 16.8914 19.6297 16.7463 19.7336 16.5598C19.8375 16.3707 19.8894 16.151 19.8894 15.9007C19.8894 15.6476 19.8375 15.4292 19.7336 15.2455C19.6297 15.059 19.4766 14.9152 19.2742 14.814C19.0718 14.7128 18.8228 14.6622 18.5271 14.6622H17.5523V21.25H15.5748Z" fill="white"/>
<rect x="9" y="49" width="18" height="18" rx="9" fill="#FFC031"/>
<path d="M15.5748 62.25V54.0682H18.9546C19.5672 54.0682 20.0958 54.188 20.5406 54.4277C20.9881 54.6648 21.333 54.9964 21.5753 55.4225C21.8177 55.846 21.9389 56.3387 21.9389 56.9007C21.9389 57.4653 21.815 57.9593 21.5673 58.3828C21.3223 58.8036 20.9721 59.1299 20.5166 59.3616C20.0612 59.5933 19.5206 59.7092 18.8947 59.7092H16.8093V58.1511H18.5271C18.8254 58.1511 19.0744 58.0992 19.2742 57.9953C19.4766 57.8914 19.6297 57.7463 19.7336 57.5598C19.8375 57.3707 19.8894 57.151 19.8894 56.9007C19.8894 56.6476 19.8375 56.4292 19.7336 56.2455C19.6297 56.059 19.4766 55.9152 19.2742 55.814C19.0718 55.7128 18.8228 55.6622 18.5271 55.6622H17.5523V62.25H15.5748Z" fill="white"/>
<rect x="9" y="90" width="18" height="18" rx="9" fill="#FFC031"/>
<path d="M15.5748 103.25V95.0682H18.9546C19.5672 95.0682 20.0958 95.188 20.5406 95.4277C20.9881 95.6648 21.333 95.9964 21.5753 96.4225C21.8177 96.846 21.9389 97.3387 21.9389 97.9007C21.9389 98.4653 21.815 98.9593 21.5673 99.3828C21.3223 99.8036 20.9721 100.13 20.5166 100.362C20.0612 100.593 19.5206 100.709 18.8947 100.709H16.8093V99.1511H18.5271C18.8254 99.1511 19.0744 99.0992 19.2742 98.9953C19.4766 98.8914 19.6297 98.7463 19.7336 98.5598C19.8375 98.3707 19.8894 98.151 19.8894 97.9007C19.8894 97.6476 19.8375 97.4292 19.7336 97.2455C19.6297 97.059 19.4766 96.9152 19.2742 96.814C19.0718 96.7128 18.8228 96.6622 18.5271 96.6622H17.5523V103.25H15.5748Z" fill="white"/>
</svg>
