<svg width="121" height="109" viewBox="0 0 121 109" fill="none" xmlns="http://www.w3.org/2000/svg">
<rect x="12" width="109" height="109" rx="54.5" fill="#D4C8FF"/>
<path d="M78.7483 56.7779C81.8529 54.3032 84.119 50.9096 85.2312 47.0693C86.3435 43.229 86.2467 39.1329 84.9543 35.351C83.6619 31.569 81.2381 28.2892 78.0202 25.9678C74.8023 23.6465 70.9503 22.399 67 22.399C63.0497 22.399 59.1977 23.6465 55.9798 25.9678C52.7619 28.2892 50.3381 31.569 49.0457 35.351C47.7532 39.1329 47.6564 43.229 48.7687 47.0693C49.881 50.9096 52.1471 54.3032 55.2517 56.7779C49.9319 58.9373 45.2902 62.5188 41.8215 67.1406C38.3527 71.7624 36.1869 77.2513 35.555 83.0221C35.5092 83.4434 35.5459 83.8698 35.6627 84.2767C35.7796 84.6837 35.9745 85.0634 36.2362 85.3941C36.7647 86.062 37.5335 86.4897 38.3733 86.5834C39.2132 86.6769 40.0553 86.4287 40.7145 85.8932C41.3737 85.3577 41.7959 84.5788 41.8883 83.7279C42.5837 77.4563 45.5353 71.664 50.1793 67.4578C54.8234 63.2516 60.8342 60.9264 67.0633 60.9264C73.2925 60.9264 79.3033 63.2516 83.9473 67.4578C88.5913 71.664 91.543 77.4563 92.2383 83.7279C92.3244 84.5163 92.6957 85.2444 93.2805 85.7717C93.8653 86.299 94.6221 86.5882 95.405 86.5834H95.7533C96.5834 86.4866 97.3421 86.0613 97.8641 85.4003C98.3861 84.7392 98.629 83.8959 98.54 83.0542C97.905 77.267 95.7276 71.764 92.241 67.1351C88.7544 62.5062 84.0902 58.9258 78.7483 56.7779ZM67 54.5C64.4948 54.5 62.0458 53.7474 59.9628 52.3372C57.8797 50.9271 56.2562 48.9228 55.2975 46.5778C54.3388 44.2328 54.088 41.6524 54.5767 39.163C55.0655 36.6736 56.2718 34.3869 58.0433 32.5921C59.8148 30.7974 62.0718 29.5751 64.5288 29.0799C66.9859 28.5848 69.5328 28.8389 71.8473 29.8102C74.1618 30.7816 76.1401 32.4264 77.5319 34.5369C78.9238 36.6473 79.6667 39.1285 79.6667 41.6667C79.6667 45.0703 78.3321 48.3345 75.9567 50.7412C73.5812 53.1479 70.3594 54.5 67 54.5Z" fill="white"/>
<rect y="20" width="34" height="35" rx="17" fill="white"/>
<path fill-rule="evenodd" clip-rule="evenodd" d="M17.0321 28.6948C16.063 28.6948 15.2773 29.4804 15.2773 30.4496V35.7141H10.0125C9.04343 35.7141 8.25781 36.4997 8.25781 37.4689C8.25781 38.438 9.04343 39.2236 10.0125 39.2236H15.2773V44.4874C15.2773 45.4566 16.063 46.2422 17.0321 46.2422C18.0012 46.2422 18.7868 45.4566 18.7868 44.4874V39.2236H24.0504C25.0195 39.2236 25.8052 38.438 25.8052 37.4689C25.8052 36.4997 25.0195 35.7141 24.0504 35.7141H18.7868V30.4496C18.7868 29.4804 18.0012 28.6948 17.0321 28.6948Z" fill="#D4C8FF"/>
</svg>
