<svg width="217" height="95" viewBox="0 0 217 95" fill="none" xmlns="http://www.w3.org/2000/svg">
<rect x="12.5488" y="10.6328" width="37.6468" height="37.6468" rx="18.8234" transform="rotate(-11.2616 12.5488 10.6328)" fill="#FFC031"/>
<path d="M31.0868 35.1914L27.745 18.4086L34.6777 17.0282C35.9342 16.778 37.0676 16.8079 38.0779 17.1179C39.0925 17.4214 39.9354 17.9606 40.6066 18.7358C41.2767 19.5054 41.7265 20.4666 41.956 21.6193C42.1867 22.7775 42.1344 23.8415 41.7993 24.8113C41.4686 25.7745 40.8835 26.5868 40.0439 27.2481C39.2043 27.9094 38.1427 28.3679 36.8588 28.6236L32.5812 29.4753L31.9448 26.2794L35.4685 25.5778C36.0804 25.4559 36.57 25.2477 36.9373 24.953C37.3101 24.6573 37.5649 24.297 37.7018 23.8722C37.8376 23.4418 37.8544 22.9699 37.7522 22.4564C37.6488 21.9374 37.4531 21.5106 37.165 21.1761C36.8758 20.8361 36.5029 20.6036 36.0464 20.4787C35.5898 20.3538 35.0584 20.3517 34.4519 20.4725L32.4524 20.8706L35.1432 34.3836L31.0868 35.1914Z" fill="white"/>
<rect y="50.7031" width="37.6468" height="37.6468" rx="18.8234" transform="rotate(-6.20649 0 50.7031)" fill="#FFC031"/>
<path d="M16.3007 76.7999L14.4507 59.788L21.4781 59.0237C22.7517 58.8852 23.8781 59.0149 24.8571 59.4127C25.841 59.8044 26.6331 60.4158 27.2334 61.2471C27.8331 62.0728 28.1965 63.0699 28.3236 64.2383C28.4512 65.4123 28.3054 66.4676 27.8862 67.4041C27.4719 68.3344 26.8174 69.092 25.9229 69.6768C25.0283 70.2615 23.9303 70.6247 22.629 70.7662L18.2929 71.2377L17.9406 67.9982L21.5125 67.6097C22.1327 67.5423 22.6387 67.378 23.0306 67.1168C23.428 66.8551 23.7136 66.5187 23.8874 66.1075C24.0606 65.6909 24.1189 65.2223 24.0623 64.7017C24.0051 64.1756 23.8477 63.7333 23.5902 63.3747C23.332 63.0105 22.9811 62.7461 22.5374 62.5814C22.0936 62.4168 21.5644 62.3679 20.9497 62.4347L18.9229 62.6551L20.4125 76.3527L16.3007 76.7999Z" fill="white"/>
<rect x="53.8223" y="34.3921" width="37.6468" height="37.6468" rx="18.8234" transform="rotate(24.9258 53.8223 34.3921)" fill="#FFC031"/>
<path d="M54.2842 65.1583L61.496 49.64L67.9064 52.6191C69.0683 53.1591 69.9653 53.8524 70.5977 54.6991C71.2374 55.5431 71.5993 56.476 71.6833 57.4979C71.7698 58.5147 71.5653 59.556 71.07 60.6219C70.5723 61.6928 69.9019 62.5207 69.0588 63.1056C68.2232 63.6877 67.2713 63.9978 66.2033 64.0359C65.1352 64.0739 64.0076 63.8171 62.8205 63.2654L58.8652 61.4273L60.2385 58.4721L63.4968 59.9863C64.0625 60.2492 64.5806 60.3702 65.051 60.3493C65.5265 60.3307 65.9449 60.1904 66.3063 59.9283C66.67 59.6612 66.9621 59.2903 67.1828 58.8154C67.4058 58.3355 67.4998 57.8755 67.4648 57.4354C67.4321 56.9902 67.2684 56.5825 66.9737 56.2121C66.679 55.8417 66.2513 55.5262 65.6906 55.2657L63.8417 54.4064L58.0349 66.9014L54.2842 65.1583Z" fill="white"/>
<path d="M88.9844 47.2028C88.0393 47.2028 87.2732 47.969 87.2732 48.9141C87.2732 49.8591 88.0393 50.6253 88.9844 50.6253V47.2028ZM118.715 50.1241C119.383 49.4558 119.383 48.3723 118.715 47.704L107.825 36.8139C107.156 36.1456 106.073 36.1456 105.405 36.8139C104.736 37.4822 104.736 38.5657 105.405 39.2339L115.085 48.9141L105.405 58.5942C104.736 59.2625 104.736 60.3459 105.405 61.0142C106.073 61.6825 107.156 61.6825 107.825 61.0142L118.715 50.1241ZM88.9844 50.6253L117.505 50.6253V47.2028L88.9844 47.2028V50.6253Z" fill="#E0E1E4"/>
<circle cx="143.743" cy="61.4632" r="18.253" fill="white" stroke="#D4C8FF" stroke-width="2.28163"/>
<circle cx="188.234" cy="71.7303" r="21.6755" fill="white" stroke="#D4C8FF" stroke-width="2.28163"/>
<path d="M173.305 73.7416C172.453 73.3992 171.755 72.933 171.21 72.343C170.667 71.7487 170.31 71.0908 170.14 70.3692C169.974 69.6494 170.024 68.9222 170.289 68.1877L172.59 69.1122C172.417 69.6661 172.473 70.1982 172.758 70.7085C173.044 71.2146 173.483 71.5866 174.076 71.8245C174.54 72.0112 174.996 72.0707 175.444 72.0032C175.891 71.9357 176.296 71.7544 176.657 71.4591C177.018 71.1638 177.294 70.7725 177.485 70.2851C177.688 69.7927 177.76 69.3119 177.701 68.8429C177.642 68.3739 177.471 67.9562 177.187 67.59C176.906 67.2196 176.524 66.9376 176.043 66.7441C175.653 66.5824 175.238 66.4998 174.799 66.4966C174.36 66.4933 173.981 66.5686 173.662 66.7224L171.662 65.5106L175.058 59.0372L182.649 62.0881L181.853 64.0691L176.224 61.8066L174.452 65.1251L174.529 65.1559C174.886 64.968 175.324 64.8694 175.843 64.86C176.363 64.8463 176.887 64.9457 177.415 65.158C178.208 65.4764 178.839 65.948 179.311 66.5729C179.784 67.1935 180.068 67.9016 180.164 68.6972C180.26 69.4928 180.139 70.3103 179.802 71.1495C179.455 72.0144 178.945 72.705 178.272 73.2214C177.605 73.7353 176.84 74.044 175.977 74.1475C175.12 74.2484 174.23 74.1132 173.305 73.7416ZM184.952 78.5037C183.9 78.0809 183.104 77.4517 182.563 76.6161C182.029 75.778 181.763 74.7728 181.764 73.6005C181.771 72.4256 182.061 71.1246 182.635 69.6974C183.212 68.272 183.903 67.1391 184.706 66.2989C185.514 65.4562 186.4 64.9213 187.362 64.6943C188.328 64.4691 189.335 64.5671 190.383 64.9882C191.431 65.4094 192.226 66.0356 192.768 66.8669C193.31 67.6982 193.579 68.697 193.575 69.8634C193.576 71.0314 193.29 72.3269 192.719 73.7498C192.143 75.1812 191.45 76.3226 190.637 77.1739C189.831 78.0226 188.944 78.5617 187.976 78.7912C187.012 79.0224 186.004 78.9266 184.952 78.5037ZM185.756 76.5036C186.574 76.8323 187.381 76.6891 188.177 76.0739C188.98 75.4562 189.697 74.3614 190.329 72.7894C190.746 71.7499 190.989 70.8329 191.056 70.0384C191.123 69.2438 191.03 68.5881 190.777 68.071C190.527 67.5496 190.131 67.1803 189.59 66.9628C188.776 66.6358 187.97 66.782 187.172 67.4014C186.376 68.0166 185.662 69.1029 185.031 70.6605C184.607 71.7025 184.359 72.622 184.286 73.4191C184.218 74.2179 184.309 74.8779 184.559 75.3993C184.812 75.9163 185.21 76.2844 185.756 76.5036ZM196.955 83.3272C195.902 82.9043 195.106 82.2751 194.566 81.4395C194.032 80.6014 193.765 79.5962 193.767 78.4239C193.774 77.249 194.064 75.948 194.637 74.5209C195.215 73.0954 195.905 71.9626 196.708 71.1223C197.517 70.2796 198.402 69.7447 199.364 69.5178C200.331 69.2925 201.338 69.3905 202.386 69.8116C203.434 70.2328 204.229 70.859 204.771 71.6903C205.312 72.5216 205.582 73.5204 205.578 74.6868C205.579 75.8548 205.293 77.1503 204.721 78.5732C204.146 80.0047 203.452 81.146 202.64 81.9973C201.834 82.846 200.947 83.3852 199.979 83.6147C199.015 83.8459 198.007 83.75 196.955 83.3272ZM197.758 81.327C198.576 81.6557 199.384 81.5125 200.18 80.8973C200.982 80.2796 201.7 79.1848 202.331 77.6128C202.749 76.5733 202.991 75.6563 203.058 74.8618C203.125 74.0673 203.032 73.4115 202.78 72.8944C202.529 72.3731 202.133 72.0037 201.592 71.7863C200.779 71.4593 199.973 71.6055 199.175 72.2249C198.378 72.84 197.665 73.9263 197.034 75.4839C196.61 76.5259 196.362 77.4455 196.289 78.2425C196.22 79.0413 196.311 79.7013 196.562 80.2227C196.814 80.7397 197.213 81.1079 197.758 81.327Z" fill="#D4C8FF"/>
<path d="M132.975 57.8028L135.724 69.9407L133.525 70.4386L131.261 60.4402L131.19 60.4563L128.762 62.9127L128.305 60.8977L130.883 58.2765L132.975 57.8028ZM143.345 68.458C142.369 68.679 141.475 68.6217 140.664 68.2862C139.856 67.9458 139.158 67.3499 138.571 66.4985C137.986 65.6422 137.544 64.5523 137.245 63.2286C136.949 61.9041 136.882 60.7355 137.043 59.7229C137.207 58.7054 137.581 57.873 138.166 57.2256C138.754 56.5773 139.534 56.1431 140.506 55.923C141.478 55.7029 142.369 55.7586 143.18 56.0902C143.99 56.4218 144.686 57.0118 145.269 57.8601C145.855 58.7076 146.298 59.7912 146.597 61.1109C146.898 62.4385 146.967 63.6149 146.804 64.6403C146.645 65.6608 146.271 66.4972 145.684 67.1495C145.1 67.8008 144.321 68.237 143.345 68.458ZM142.925 66.6029C143.683 66.4312 144.197 65.9222 144.467 65.0762C144.739 64.2252 144.711 63.0708 144.38 61.6128C144.162 60.6487 143.878 59.8615 143.528 59.2513C143.178 58.641 142.782 58.2116 142.339 57.9629C141.895 57.7102 141.423 57.6407 140.921 57.7543C140.166 57.9252 139.655 58.4357 139.386 59.2857C139.117 60.1318 139.144 61.2784 139.467 62.7254C139.682 63.6943 139.963 64.4863 140.31 65.1014C140.661 65.7156 141.059 66.1491 141.502 66.4017C141.945 66.6504 142.419 66.7175 142.925 66.6029ZM154.477 65.9373C153.501 66.1583 152.607 66.101 151.796 65.7655C150.988 65.4251 150.29 64.8292 149.703 63.9778C149.118 63.1215 148.676 62.0315 148.376 60.7079C148.081 59.3834 148.013 58.2148 148.175 57.2022C148.339 56.1847 148.713 55.3523 149.298 54.7049C149.886 54.0566 150.666 53.6224 151.638 53.4023C152.61 53.1822 153.501 53.2379 154.312 53.5695C155.122 53.9011 155.818 54.491 156.401 55.3394C156.987 56.1869 157.43 57.2705 157.729 58.5901C158.029 59.9177 158.099 61.0942 157.936 62.1196C157.777 63.1401 157.403 63.9765 156.816 64.6287C156.232 65.2801 155.453 65.7163 154.477 65.9373ZM154.057 64.0822C154.815 63.9104 155.329 63.4015 155.599 62.5554C155.871 61.7045 155.842 60.55 155.512 59.0921C155.294 58.128 155.01 57.3408 154.66 56.7306C154.31 56.1203 153.913 55.6908 153.471 55.4421C153.027 55.1895 152.555 55.12 152.053 55.2336C151.298 55.4045 150.787 55.915 150.518 56.765C150.248 57.6111 150.275 58.7576 150.599 60.2046C150.814 61.1736 151.095 61.9656 151.442 62.5807C151.793 63.1949 152.19 63.6283 152.634 63.881C153.077 64.1297 153.551 64.1967 154.057 64.0822Z" fill="#D4C8FF"/>
<mask id="mask0_320_310" style="mask-type:luminance" maskUnits="userSpaceOnUse" x="131" y="0" width="86" height="44">
<path d="M215.228 5.83655L135.423 0.256036C134.872 0.21751 134.394 0.632904 134.356 1.18384L131.844 37.0962C131.806 37.6471 132.221 38.1249 132.772 38.1635L212.577 43.744C213.128 43.7825 213.606 43.3671 213.645 42.8162L216.156 6.90387C216.194 6.35294 215.779 5.87508 215.228 5.83655Z" fill="white"/>
</mask>
<g mask="url(#mask0_320_310)">
<path d="M215.228 5.83655L135.423 0.256036C134.872 0.21751 134.394 0.632904 134.356 1.18384L131.844 37.0962C131.806 37.6471 132.221 38.1249 132.772 38.1635L212.577 43.744C213.128 43.7825 213.606 43.3671 213.645 42.8162L216.156 6.90387C216.194 6.35294 215.779 5.87508 215.228 5.83655Z" fill="white" stroke="#D4C8FF" stroke-width="4"/>
</g>
<path d="M136.709 20.0171L147.076 20.742L146.982 22.0848L136.615 21.3599L136.709 20.0171ZM141.28 17.775L142.748 17.8776L142.134 26.6633L140.666 26.5606L141.28 17.775ZM145.287 16.2369L146.242 17.4587C145.647 17.5848 145.007 17.6925 144.322 17.7819C143.637 17.8636 142.927 17.9321 142.191 17.9875C141.464 18.0357 140.73 18.072 139.988 18.0964C139.255 18.1213 138.537 18.1359 137.835 18.1403C137.829 18.0178 137.808 17.8829 137.772 17.7356C137.745 17.5812 137.709 17.4301 137.666 17.2822C137.631 17.1348 137.59 17.01 137.544 16.9077C138.238 16.9029 138.937 16.8831 139.641 16.8485C140.353 16.8143 141.049 16.7715 141.732 16.7202C142.421 16.6693 143.066 16.6038 143.666 16.5238C144.274 16.4443 144.814 16.3487 145.287 16.2369ZM148.737 17.1185L157.659 17.7424L157.564 19.0967L150.008 18.5683L149.406 27.1718L148.041 27.0763L148.737 17.1185ZM157.01 17.697L158.387 17.7934L157.802 26.1579C157.777 26.522 157.711 26.8033 157.606 27.0019C157.5 27.2079 157.325 27.3597 157.082 27.457C156.84 27.5544 156.539 27.602 156.18 27.5998C155.83 27.6057 155.4 27.5909 154.891 27.5553C154.878 27.4248 154.85 27.2742 154.808 27.1036C154.767 26.933 154.718 26.7618 154.662 26.5901C154.604 26.426 154.546 26.2809 154.486 26.1547C154.705 26.1853 154.925 26.2121 155.144 26.2351C155.371 26.251 155.572 26.265 155.747 26.2773C155.922 26.2895 156.042 26.2979 156.111 26.3027C156.217 26.3025 156.295 26.2851 156.343 26.2503C156.392 26.208 156.419 26.1374 156.426 26.0389L157.01 17.697ZM149.18 21.4037L157.385 21.9774L157.291 23.3204L149.086 22.7466L149.18 21.4037ZM152.747 18.1423L154.113 18.2378L153.822 22.403L152.456 22.3075L152.747 18.1423Z" fill="#D4C8FF"/>
<path d="M173.708 32.8317C179.966 33.2693 185.394 28.5507 185.832 22.2925C186.269 16.0343 181.551 10.6062 175.292 10.1686C169.034 9.73098 163.606 14.4495 163.169 20.7078C162.731 26.966 167.449 32.394 173.708 32.8317Z" stroke="#D4C8FF" stroke-width="2.28163"/>
<path d="M190.245 7.91117L189.725 15.3601L188.375 15.2657L188.804 9.12982L188.76 9.12675L186.94 10.1179L187.027 8.88129L188.962 7.8214L190.245 7.91117ZM194.359 15.8268C193.76 15.7848 193.257 15.5974 192.849 15.2642C192.443 14.9289 192.146 14.4658 191.956 13.875C191.767 13.282 191.702 12.5793 191.759 11.767C191.819 10.9549 191.982 10.2719 192.25 9.71803C192.52 9.16183 192.879 8.74838 193.327 8.47756C193.777 8.20688 194.301 8.0924 194.897 8.13412C195.494 8.17583 195.996 8.36202 196.404 8.69269C196.812 9.02336 197.11 9.48285 197.298 10.071C197.488 10.6594 197.556 11.3585 197.499 12.1684C197.442 12.9831 197.278 13.671 197.007 14.232C196.739 14.7907 196.379 15.2066 195.929 15.4796C195.481 15.7529 194.958 15.8686 194.359 15.8268ZM194.439 14.6883C194.905 14.7209 195.288 14.5175 195.589 14.078C195.893 13.6362 196.076 12.968 196.138 12.0732C196.18 11.4816 196.153 10.9802 196.057 10.569C195.962 10.1579 195.808 9.84256 195.597 9.62311C195.386 9.40124 195.127 9.27956 194.819 9.258C194.356 9.22564 193.974 9.43039 193.672 9.87227C193.371 10.3117 193.188 10.9751 193.123 11.8624C193.079 12.4563 193.104 12.96 193.197 13.3734C193.292 13.7869 193.445 14.1047 193.656 14.3266C193.867 14.546 194.129 14.6667 194.439 14.6883ZM201.191 16.3045C200.592 16.2626 200.088 16.0751 199.68 15.7419C199.275 15.4066 198.977 14.9435 198.787 14.3527C198.6 13.7597 198.534 13.057 198.59 12.2447C198.65 11.4326 198.813 10.7496 199.082 10.1957C199.352 9.63959 199.711 9.22608 200.159 8.95526C200.609 8.68457 201.132 8.5701 201.729 8.61181C202.325 8.65353 202.827 8.83971 203.235 9.17038C203.644 9.50112 203.942 9.96054 204.129 10.5487C204.32 11.1371 204.387 11.8362 204.33 12.6461C204.273 13.4608 204.109 14.1487 203.838 14.7097C203.571 15.2684 203.212 15.6843 202.761 15.9573C202.313 16.2307 201.789 16.3463 201.191 16.3045ZM201.27 15.166C201.736 15.1986 202.119 14.9951 202.421 14.5557C202.724 14.1139 202.907 13.4457 202.97 12.5509C203.011 11.9593 202.984 11.4579 202.888 11.0467C202.793 10.6356 202.64 10.3203 202.428 10.1008C202.217 9.87894 201.958 9.75725 201.65 9.7357C201.187 9.70333 200.805 9.90809 200.503 10.35C200.202 10.7894 200.019 11.4528 199.955 12.3401C199.911 12.934 199.935 13.4377 200.028 13.8511C200.123 14.2646 200.276 14.5824 200.488 14.8043C200.699 15.0237 200.96 15.1443 201.27 15.166ZM208.022 16.7821C207.423 16.7403 206.92 16.5528 206.511 16.2196C206.107 15.8844 205.808 15.4212 205.618 14.8304C205.431 14.2374 205.366 13.5348 205.423 12.7225C205.482 11.9103 205.645 11.2273 205.913 10.6734C206.183 10.1173 206.542 9.70377 206.99 9.43295C207.44 9.16227 207.963 9.04779 208.56 9.0895C209.156 9.13122 209.659 9.31741 210.068 9.64815C210.475 9.97882 210.773 10.4382 210.962 11.0264C211.152 11.6148 211.218 12.3139 211.162 13.1238C211.105 13.9385 210.941 14.6265 210.671 15.1874C210.402 15.7461 210.043 16.162 209.593 16.4351C209.145 16.7084 208.621 16.8241 208.022 16.7821ZM208.102 15.6437C208.567 15.6763 208.951 15.4728 209.252 15.0334C209.555 14.5916 209.738 13.9234 209.801 13.0286C209.842 12.437 209.815 11.9356 209.72 11.5244C209.625 11.1133 209.472 10.798 209.26 10.5785C209.049 10.3566 208.789 10.2349 208.481 10.2134C208.018 10.181 207.636 10.3858 207.335 10.8276C207.033 11.2671 206.85 11.9305 206.786 12.8178C206.742 13.4117 206.767 13.9154 206.86 14.3288C206.955 14.7423 207.108 15.0601 207.32 15.282C207.531 15.5015 207.791 15.622 208.102 15.6437Z" fill="#D4C8FF"/>
</svg>
