<svg width="199" height="186" viewBox="0 0 199 186" fill="none" xmlns="http://www.w3.org/2000/svg">
<path d="M140.829 96.3552L117.449 118.98L94.0684 96.3552C97.3996 95.476 100.703 93.4361 104.412 93.2644C104.872 93.2438 105.34 93.2232 105.82 93.2094V80.0151H129.084V93.2094C129.558 93.2232 130.025 93.2438 130.492 93.2644C134.201 93.4292 137.504 95.476 140.836 96.3552H140.829Z" fill="white" stroke="#21272E" stroke-width="3.74" stroke-linecap="round" stroke-linejoin="round"/>
<path d="M130.485 93.2779C131.364 93.3191 132.215 93.3741 133.053 93.4359C133.205 93.4496 133.356 93.4633 133.507 93.4771C134.221 93.5389 134.929 93.6145 135.629 93.7037C135.979 93.7518 136.323 93.8068 136.673 93.8617C137.188 93.9373 137.703 94.0128 138.212 94.109C139.077 94.2738 139.936 94.4661 140.801 94.6859C140.815 94.6859 140.822 94.6859 140.835 94.6928C140.835 94.6928 141.028 94.8164 141.33 95.0225V94.8302C141.33 94.8302 141.33 94.8302 141.337 94.8302C141.721 94.9401 142.14 95.0706 142.566 95.2217C142.642 95.2491 142.71 95.2698 142.786 95.2972C143.226 95.4483 143.686 95.62 144.16 95.8124C144.16 95.8124 144.194 95.7918 144.235 95.7574C147.951 97.0624 152.313 98.9856 155.946 100.751C160.582 103.004 169.278 110.545 171.634 121.047C173.522 129.475 176.819 162.718 176.826 173.694C176.826 175.94 176.819 171.674 176.819 173.694H141.337H130.485V93.271V93.2779Z" fill="#A7A7C7"/>
<path d="M48.8599 110.284C46.9436 105.03 44.0451 101.554 42.1288 99.6106C40.2125 97.66 34.7521 96.4099 31.3728 95.098C28.0004 93.7861 24.2708 91.9866 21.18 90.3107C18.0892 88.6279 16.0356 91.76 17.8008 93.3946C19.5659 95.0293 21.8737 96.5953 23.948 98.0858C22.1278 97.6668 18.467 96.0047 16.0356 96.0047C15.7196 95.2766 6.47464 87.2886 6.47464 87.2886C4.27674 84.9739 0.808183 87.3779 2.40853 89.9467C2.83438 90.6267 2.95801 91.2517 4.25615 92.7628C4.15312 93.168 4.24929 93.69 4.65453 94.2875C6.16559 96.5129 13.4461 104.453 15.0602 106.664C16.6812 108.876 20.6649 111.198 23.9412 112.407C27.9592 113.89 33.3578 115.896 36.5173 116.466C37.6231 117.317 38.7839 129.262 38.7839 129.262L53.0496 127.345C53.0496 127.345 50.4121 116.658 48.8599 110.284Z" fill="white" stroke="#21272E" stroke-width="3.74" stroke-linecap="round" stroke-linejoin="round"/>
<path d="M4.2561 92.7628C5.57485 92.0828 6.81117 92.5086 7.64912 93.4565C8.48707 94.4043 17.1413 102.859 17.1413 102.859C21.805 102.468 29.0237 102.681 33.5706 107.605" stroke="#21272E" stroke-width="3.74" stroke-linecap="round" stroke-linejoin="round"/>
<path d="M53.4623 122.64L52.1435 116.184L34.6152 119.797L36.0095 125.353L53.4623 122.64Z" fill="white" stroke="#21272E" stroke-width="3.74" stroke-linecap="round" stroke-linejoin="round"/>
<path d="M67.5274 117.524C71.3943 107.708 77.2187 102.859 77.2187 102.859C81.2574 100.297 90.6878 95.8261 90.729 95.8123C91.2029 95.62 92.2469 95.2491 92.3225 95.2216C92.7552 95.0774 93.1673 94.94 93.5519 94.8301C93.5519 94.8301 93.5519 94.8301 93.5588 94.8301V95.0225C93.861 94.8233 94.0534 94.6928 94.0534 94.6928C97.3777 93.8136 100.702 93.4358 104.397 93.271V173.694H93.5588H74.8354L75.3849 157.333C71.7721 164.009 63.8733 178.193 61.9021 178.481C59.3196 178.852 58.8594 135.814 58.8594 135.814C58.8594 135.814 64.4022 125.45 67.5205 117.524H67.5274Z" fill="#A7A7C7"/>
<path d="M130.485 173.701V93.2779C141.989 93.2779 152.313 98.9925 155.946 100.758C160.582 103.011 169.278 110.552 171.634 121.054C173.522 129.482 176.819 162.725 176.826 173.701C176.826 175.947 176.819 171.681 176.819 173.701" stroke="#21272E" stroke-width="3.74" stroke-linecap="round" stroke-linejoin="round"/>
<path d="M58.873 135.821C58.873 135.821 64.4159 125.456 67.5342 117.53C71.4011 107.715 77.2255 102.866 77.2255 102.866C80.3369 100.572 85.7836 96.9868 94.0738 94.7064C97.3981 93.8273 100.723 93.4495 104.418 93.2847V173.707" stroke="#21272E" stroke-width="3.74" stroke-linecap="round" stroke-linejoin="round"/>
<path d="M45.4676 121.604L33.125 123.987C33.125 123.987 39.9454 160.946 41.7106 170.081C44.1145 182.527 51.6904 181.661 56.5739 180.713C61.4573 179.773 66.7941 177.753 64.3902 165.308C62.625 156.173 55.8046 119.213 55.8046 119.213L45.4676 121.597V121.604Z" fill="#A7A7C7"/>
<path d="M58.8748 135.821C57.192 126.734 55.8046 119.22 55.8046 119.22L45.4676 121.604L33.125 123.987C33.125 123.987 39.9454 160.946 41.7106 170.081C44.1145 182.527 51.6904 181.661 56.5739 180.713C58.5176 180.336 62.728 178.571 65.1526 174.862C68.2777 170.081 72.9071 161.949 75.4072 157.34L74.8577 173.701" stroke="#21272E" stroke-width="3.74" stroke-linecap="round" stroke-linejoin="round"/>
<path d="M62.843 156.31C61.6273 150.039 60.1643 142.477 58.873 135.821" stroke="#21272E" stroke-width="3.74" stroke-linecap="round" stroke-linejoin="round"/>
<path d="M75.3789 157.91L76.0452 138.555" stroke="#21272E" stroke-width="3.74" stroke-linecap="round" stroke-linejoin="round"/>
<path d="M160.053 173.701L158.844 138.555" stroke="#21272E" stroke-width="3.74" stroke-linecap="round" stroke-linejoin="round"/>
<path d="M161.121 141.558L180.287 143.586L183.421 113.97L164.255 111.942L161.121 141.558Z" fill="white" stroke="#21272E" stroke-width="3.74" stroke-linecap="round" stroke-linejoin="round"/>
<path d="M159.278 141.37L182.125 143.788L183.692 128.979L160.844 126.562L159.278 141.37Z" fill="white" stroke="#21272E" stroke-width="3.74" stroke-linecap="round" stroke-linejoin="round"/>
<path d="M171.715 101.17C170.602 98.9648 169.338 97.0073 167.985 95.139C167.305 94.2049 166.605 93.2983 165.863 92.4123C165.121 91.5194 164.366 90.6608 163.459 89.7473C162.133 88.4148 159.977 88.408 158.644 89.7336C157.442 90.9287 157.319 92.8038 158.28 94.1431L158.376 94.2736C158.878 94.9742 159.427 95.8122 159.929 96.657C160.437 97.5087 160.918 98.381 161.378 99.2601C162.278 101.018 163.074 102.825 163.631 104.563C164.373 106.877 166.852 108.148 169.167 107.399C171.481 106.657 172.752 104.178 172.003 101.863C171.935 101.65 171.852 101.444 171.756 101.252L171.715 101.17Z" fill="white" stroke="#21272E" stroke-width="3.74" stroke-linecap="round" stroke-linejoin="round"/>
<path d="M181.661 103.196C182.142 103.244 182.636 103.189 183.11 102.997L195.103 98.2782C196.689 97.6531 197.465 95.8605 196.847 94.2807C196.222 92.6941 194.429 91.918 192.85 92.5361L180.857 97.2547C179.271 97.8798 178.495 99.6724 179.113 101.252C179.545 102.358 180.555 103.072 181.661 103.189V103.196Z" fill="white" stroke="#21272E" stroke-width="3.74" stroke-linecap="round" stroke-linejoin="round"/>
<path d="M161.556 120.766L184.226 123.165C185.026 123.25 185.742 122.67 185.827 121.87L190.811 74.7684C190.896 73.9686 190.316 73.2517 189.516 73.1671L166.846 70.7684C166.046 70.6838 165.33 71.2635 165.245 72.0632L160.261 119.165C160.176 119.965 160.756 120.682 161.556 120.766Z" fill="white" stroke="#21272E" stroke-width="3.74" stroke-miterlimit="10"/>
<path d="M164.69 112.206L182.947 114.138L186.538 80.2047L168.28 78.2728L164.69 112.206Z" fill="#A7A7C7" stroke="#21272E" stroke-width="2.25" stroke-linecap="round" stroke-linejoin="round"/>
<path d="M175.116 76.8001L179.889 77.3084C180.349 77.3565 180.761 77.0268 180.81 76.5666C180.858 76.1064 180.528 75.6943 180.068 75.6462L175.294 75.138C174.834 75.0899 174.422 75.4196 174.374 75.8797C174.326 76.3399 174.655 76.752 175.116 76.8001Z" fill="#21272E"/>
<path d="M181.653 76.6493C181.605 77.1095 181.935 77.5216 182.395 77.5697C182.855 77.6177 183.267 77.288 183.315 76.8279C183.363 76.3677 183.034 75.9556 182.574 75.9075C182.113 75.8594 181.701 76.1891 181.653 76.6493Z" fill="#21272E"/>
<path d="M171.187 117.084C171.317 115.875 172.396 114.996 173.604 115.126C174.813 115.257 175.692 116.335 175.562 117.544C175.431 118.753 174.353 119.632 173.144 119.501C171.935 119.371 171.056 118.292 171.187 117.084Z" fill="#21272E"/>
<path d="M185.657 108.821C186.138 108.869 186.632 108.814 187.106 108.622L191.482 106.898C193.068 106.273 193.844 104.48 193.226 102.894C192.601 101.307 190.808 100.531 189.229 101.149L184.853 102.873C183.267 103.498 182.491 105.291 183.109 106.87C183.542 107.976 184.551 108.69 185.657 108.807V108.821Z" fill="white" stroke="#21272E" stroke-width="3.74" stroke-linecap="round" stroke-linejoin="round"/>
<path d="M184.923 115.738C185.403 115.786 185.898 115.731 186.372 115.538L190.747 113.814C192.334 113.189 193.11 111.397 192.492 109.817C191.874 108.237 190.074 107.454 188.494 108.072L184.119 109.796C182.533 110.421 181.756 112.214 182.375 113.794C182.807 114.9 183.817 115.614 184.923 115.731V115.738Z" fill="white" stroke="#21272E" stroke-width="3.74" stroke-linecap="round" stroke-linejoin="round"/>
<path d="M185.314 121.239C185.719 121.28 186.138 121.232 186.543 121.074L190.252 119.618C191.598 119.089 192.258 117.571 191.729 116.232C191.2 114.886 189.682 114.226 188.343 114.755L184.634 116.211C183.288 116.74 182.628 118.258 183.157 119.598C183.528 120.538 184.38 121.143 185.314 121.239Z" fill="white" stroke="#21272E" stroke-width="3.74" stroke-linecap="round" stroke-linejoin="round"/>
<path d="M155.011 168.281C153.088 186.462 178.714 189.587 180.685 171.001C182.093 157.697 184.614 133.87 184.614 133.87L158.94 131.15C158.94 131.15 155.911 159.751 155.011 168.281Z" fill="#A7A7C7"/>
<path d="M155.011 168.281C153.088 186.462 178.714 189.587 180.685 171.001C182.093 157.697 184.614 133.87 184.614 133.87L158.94 131.15C158.94 131.15 155.911 159.751 155.011 168.281Z" stroke="#21272E" stroke-width="3.74" stroke-linecap="round" stroke-linejoin="round"/>
<path d="M94.8234 167.766L86.959 115.559L94.8234 100.064" stroke="#21272E" stroke-width="2.99" stroke-linecap="round" stroke-linejoin="round"/>
<path d="M140.066 167.766L147.931 115.559L140.066 100.064" stroke="#21272E" stroke-width="2.99" stroke-linecap="round" stroke-linejoin="round"/>
<path d="M80.5577 37.6091C82.4465 28.0551 90.4345 9.6133 103.203 7.66266C106.376 4.42762 112.489 1.79013 117.716 2.02366C137.401 1.15137 152.299 24.6071 154.874 37.6091C157.45 50.618 158.185 57.404 154.874 63.8603C151.564 70.3167 137.765 78.2772 117.716 78.2772C97.667 78.2772 83.8683 70.3167 80.5577 63.8603C77.2471 57.404 77.982 50.618 80.5577 37.6091Z" fill="#BDBEC0" stroke="#21272E" stroke-width="3.74" stroke-linecap="round" stroke-linejoin="round"/>
<path d="M141.988 47.3689C144.667 43.4196 149.647 40.8096 151.762 45.3221C153.878 49.8347 151.302 55.9751 147.772 59.4986C144.241 63.0221 140.862 60.0618 140.58 57.5205C140.299 54.9792 141.988 47.3621 141.988 47.3621V47.3689Z" fill="white" stroke="#21272E" stroke-width="3.74" stroke-linecap="round" stroke-linejoin="round"/>
<path d="M93.3185 47.3689C90.6398 43.4196 85.6602 40.8096 83.5447 45.3221C81.4292 49.8347 84.0049 55.9751 87.5353 59.4986C91.0588 63.0221 94.4449 60.0618 94.7266 57.5205C95.0082 54.9792 93.3185 47.3621 93.3185 47.3621V47.3689Z" fill="white" stroke="#21272E" stroke-width="3.74" stroke-linecap="round" stroke-linejoin="round"/>
<path d="M146.055 36.0499C145.471 16.3855 129.942 7.6626 117.654 7.6626C105.367 7.6626 89.837 16.3855 89.2531 36.0499C88.9441 46.5586 91.2037 59.5537 93.2368 65.8315C96.0529 74.527 97.5708 76.6562 104.494 80.9078C111.424 85.1593 115.704 86.5124 117.647 86.5124C119.591 86.5124 123.87 85.1593 130.8 80.9078C137.731 76.6562 139.249 74.527 142.058 65.8315C144.091 59.5469 146.351 46.5586 146.041 36.0499H146.055Z" fill="white"/>
<path d="M129.77 45.1714C128.253 45.1714 127.717 46.7099 127.717 48.6056C127.717 50.5013 128.253 52.0398 129.77 52.0398C131.288 52.0398 131.824 50.5013 131.824 48.6056C131.824 46.7099 131.288 45.1714 129.77 45.1714Z" fill="#21272E"/>
<path d="M105.333 45.1714C103.815 45.1714 103.279 46.7099 103.279 48.6056C103.279 50.5013 103.815 52.0398 105.333 52.0398C106.851 52.0398 107.387 50.5013 107.387 48.6056C107.387 46.7099 106.851 45.1714 105.333 45.1714Z" fill="#21272E"/>
<path d="M123.389 69.4512C123.389 72.6381 121.04 75.8251 117.551 75.8251C114.062 75.8251 111.713 72.6381 111.713 69.4512H123.389Z" stroke="#21272E" stroke-width="2.99" stroke-linecap="round" stroke-linejoin="round"/>
<path d="M116.645 56.3669C116.233 59.2653 114.076 59.9728 114.062 61.1473C114.049 62.3218 116.123 63.1391 116.123 63.1391" stroke="#21272E" stroke-width="2.99" stroke-linecap="round" stroke-linejoin="round"/>
<path d="M90.4755 24.0025C94.5966 12.3399 108.423 6.5498 115.999 6.5498C123.575 6.5498 153.329 9.44142 146.144 48.5985C145.883 44.5461 137.937 38.8384 131.824 35.4385C125.979 35.3836 118.148 30.6237 113.485 24.2292C113.485 25.6029 114.46 29.6072 116.926 33.6252C113.203 32.643 107.928 29.4836 103.505 25.0603C100.785 30.8916 95.7848 37.451 93.7792 38.7766C93.1473 41.8262 91.8904 47.6781 89.1637 48.5985C88.9507 48.4748 86.3819 35.5965 90.4686 24.0025H90.4755Z" fill="#BDBEC0"/>
<path d="M93.4843 40.1367C92.7768 43.3099 91.5199 47.8019 89.1641 48.5986" stroke="#21272E" stroke-width="3.74" stroke-linecap="round" stroke-linejoin="round"/>
<path d="M146.145 48.5986C145.884 44.5462 137.937 38.8386 131.824 35.4387C125.979 35.3837 118.149 30.6239 113.485 24.2294C113.485 25.6031 114.46 29.6074 116.926 33.6254C113.204 32.6432 107.929 29.4837 103.505 25.0605C101.857 28.5977 99.3705 32.396 97.2207 35.1365" stroke="#21272E" stroke-width="3.74" stroke-linecap="round" stroke-linejoin="round"/>
<path d="M88.4297 42.561C89.1783 51.4763 91.6098 60.8036 93.2376 65.8313C96.0537 74.5268 97.5716 76.656 104.495 80.9076C111.425 85.1592 115.704 86.5122 117.648 86.5122C119.592 86.5122 123.871 85.1592 130.801 80.9076C137.731 76.656 139.249 74.5268 142.059 65.8313C143.686 60.8036 146.118 51.4694 146.867 42.561" stroke="#21272E" stroke-width="3.74" stroke-linecap="round" stroke-linejoin="round"/>
<path d="M131.825 35.4388C127.573 33.2752 124.448 28.0621 124.057 26.5029" stroke="#21272E" stroke-width="3.74" stroke-linecap="round" stroke-linejoin="round"/>
<path d="M179.867 57.2046L179.414 62.3559" stroke="#A7A7C7" stroke-width="5.24" stroke-linecap="round" stroke-linejoin="round"/>
<path d="M189.483 59.478L186.578 63.7571" stroke="#A7A7C7" stroke-width="5.24" stroke-linecap="round" stroke-linejoin="round"/>
<path d="M170.012 57.6716L172.12 62.3903" stroke="#A7A7C7" stroke-width="5.24" stroke-linecap="round" stroke-linejoin="round"/>
</svg>
