<svg width="253" height="106" viewBox="0 0 253 106" fill="none" xmlns="http://www.w3.org/2000/svg">
<rect width="106" height="106" rx="53" fill="url(#paint0_linear_289_135)"/>
<rect x="146.938" width="106" height="106" rx="53" fill="#E0E1E4"/>
<path d="M134.4 51.6106H119.158V49.71H134.4V51.6106ZM134.4 57.0057H119.158V55.105H134.4V57.0057Z" fill="black"/>
<path d="M49.3813 39.3263V66.9727H43.5362V44.8744H43.3742L37.0431 48.8432V43.6595L43.8872 39.3263H49.3813ZM55.3747 66.9727V47.8328H62.926C64.3777 47.8328 65.6144 48.1101 66.6362 48.6646C67.658 49.2129 68.4368 49.9761 68.9726 50.9543C69.5146 51.9262 69.7857 53.0477 69.7857 54.3187C69.7857 55.5897 69.5115 56.7112 68.9633 57.6831C68.415 58.6551 67.6206 59.4121 66.5801 59.9541C65.5459 60.4961 64.2936 60.7672 62.8232 60.7672H58.0102V57.5242H62.169C62.9478 57.5242 63.5895 57.3903 64.0942 57.1224C64.6051 56.8482 64.9851 56.4713 65.2344 55.9916C65.4898 55.5056 65.6175 54.948 65.6175 54.3187C65.6175 53.6832 65.4898 53.1287 65.2344 52.6552C64.9851 52.1754 64.6051 51.8047 64.0942 51.5431C63.5833 51.2751 62.9353 51.1412 62.1503 51.1412H59.4214V66.9727H55.3747Z" fill="white"/>
<path d="M195.597 39.495H219.668V43.1487H199.281V66.3605H195.597V39.495ZM217.918 39.495H221.633V62.0621C221.633 63.0446 221.51 63.8122 221.265 64.3648C221.019 64.9379 220.579 65.378 219.945 65.6851C219.31 65.9921 218.512 66.1763 217.55 66.2377C216.608 66.3196 215.452 66.3605 214.08 66.3605C214.019 66.0126 213.916 65.6134 213.773 65.1631C213.63 64.7128 213.466 64.2625 213.282 63.8122C213.098 63.3823 212.913 63.0036 212.729 62.6761C213.323 62.7171 213.916 62.7478 214.51 62.7682C215.124 62.7682 215.667 62.7682 216.137 62.7682C216.608 62.7682 216.936 62.7682 217.12 62.7682C217.406 62.7478 217.611 62.6864 217.734 62.584C217.857 62.4612 217.918 62.2667 217.918 62.0006V39.495ZM197.592 50.9167H219.73V54.5397H197.592V50.9167ZM206.558 41.4907H210.242V52.7282H206.558V41.4907Z" fill="white"/>
<path d="M189.186 39.3263V66.9727H183.341V44.8744H183.179L176.848 48.8432V43.6595L183.692 39.3263H189.186Z" fill="white"/>
<defs>
<linearGradient id="paint0_linear_289_135" x1="-1.31627e-07" y1="70.6667" x2="108.09" y2="61.0586" gradientUnits="userSpaceOnUse">
<stop stop-color="#C093FF"/>
<stop offset="0.515" stop-color="#FFA9EC"/>
<stop offset="0.871688" stop-color="#FFC65B"/>
</linearGradient>
</defs>
</svg>
