<svg width="98" height="97" viewBox="0 0 98 97" fill="none" xmlns="http://www.w3.org/2000/svg">
<mask id="mask0_137_1193" style="mask-type:luminance" maskUnits="userSpaceOnUse" x="0" y="0" width="98" height="97">
<path d="M97.07 0H0V96.78H97.07V0Z" fill="white"/>
</mask>
<g mask="url(#mask0_137_1193)">
<path d="M63.8102 42.5598C76.6602 42.5598 87.1202 52.9898 87.1202 65.7998C87.1202 78.6098 76.6702 89.0398 63.8102 89.0398C50.9502 89.0398 40.5002 78.6098 40.5002 65.7998C40.5002 52.9898 50.9602 42.5598 63.8102 42.5598ZM63.8102 34.8198C46.6502 34.8198 32.7402 48.6898 32.7402 65.7998C32.7402 82.9098 46.6502 96.7798 63.8102 96.7798C80.9702 96.7798 94.8902 82.9098 94.8902 65.7998C94.8902 48.6898 80.9802 34.8198 63.8102 34.8198Z" fill="#A7A7C7"/>
<path d="M64.8288 55.4602H58.2088C57.1488 55.4602 56.2988 56.3102 56.2988 57.3602V76.8002C56.2988 77.8502 57.1488 78.7102 58.2088 78.7102H59.1688C60.2188 78.7102 61.0788 77.8502 61.0788 76.8002V71.3302H64.8188C69.8288 71.3302 73.9088 67.7702 73.9088 63.3902C73.9088 59.0102 69.8288 55.4502 64.8188 55.4502L64.8288 55.4602ZM64.8288 67.1602H61.0888V59.6402H64.8288C67.1988 59.6402 69.1288 61.3302 69.1288 63.4002C69.1288 65.4702 67.1988 67.1602 64.8288 67.1602Z" fill="#A7A7C7"/>
<path d="M27.3797 0C13.4697 0 2.1897 5.48 2.1897 12.23V18.76C2.1897 25.52 13.4597 30.99 27.3797 30.99C41.2997 30.99 52.5697 25.51 52.5697 18.76V12.23C52.5697 5.47 41.2897 0 27.3797 0ZM27.3797 5.08C39.6497 5.08 47.4697 9.78 47.4697 12.23C47.4697 14.68 39.6497 19.38 27.3797 19.38C15.1097 19.38 7.2897 14.68 7.2897 12.23C7.2897 9.78 15.1097 5.08 27.3797 5.08Z" fill="#A7A7C7"/>
<path d="M27.3697 40.83C32.0297 40.83 36.3897 40.21 40.1397 39.14C36.5297 42.3 33.5797 46.2 31.4997 50.59C30.1597 50.7 28.7797 50.76 27.3697 50.76C13.4597 50.76 2.17969 45.27 2.17969 38.52V30.84C2.17969 30.72 2.26969 30.6 2.39969 30.59C2.45969 30.57 2.51969 30.6 2.56969 30.67C2.53969 30.67 2.56969 30.76 2.73969 31.18C5.17969 36.7 15.2797 40.83 27.3697 40.83Z" fill="#A7A7C7"/>
<path d="M28.0697 65.8C28.0697 67.31 28.1597 68.78 28.3597 70.23C28.0297 70.25 27.7097 70.25 27.3697 70.25C13.4597 70.25 2.17969 64.78 2.17969 58.03V50.33C2.17969 50.22 2.26969 50.12 2.39969 50.1C2.49969 50.09 2.56969 50.15 2.60969 50.22C2.54969 50.14 2.48969 50.1 2.73969 50.69C5.17969 56.2 15.2797 60.34 27.3697 60.34C27.7397 60.34 28.1297 60.34 28.4997 60.3C28.2097 62.1 28.0697 63.93 28.0697 65.8Z" fill="#A7A7C7"/>
<path d="M36.6297 88.89C33.7697 89.45 30.6497 89.74 27.3697 89.74C13.4597 89.74 2.17969 84.28 2.17969 77.51V69.83C2.17969 69.71 2.26969 69.61 2.39969 69.6C2.48969 69.58 2.58969 69.63 2.61969 69.72C2.55969 69.64 2.47969 69.57 2.73969 70.17C5.17969 75.7 15.2797 79.83 27.3697 79.83C28.5697 79.83 29.7597 79.78 30.9097 79.71C32.3397 83.07 34.2797 86.17 36.6297 88.89Z" fill="#A7A7C7"/>
</g>
</svg>
